# xmcd
#
# Track frame offsets: 
#        150
#        14851
#        29137
#        41823
#        55393
#        66242
#        77699
#        87598
#        100890
#        111326
#        125220
#        138079
#        151774
#        164801
#        177371
#        191819
#        205506
#        219145
#        232637
#        245955
#        258596
#        271741
#        284635
#        296406
#        307374
#        318911
#        332242
#        344591
#        355191
#
# Disc length: 4906 seconds
#
# Revision: 1
# Processed by: cddbd v1.5.2PL0 Copyright (c) Steve Scherf et al.
# Submitted via: ExactAudioCopyFreeDBPlugin 1.0
#
DISCID=d213281d
DTITLE=B.B. King - Complete Recordings 1949-1962 [Enlightenment Record
DTITLE=s]
DYEAR=2015
DGENRE=Blues
TTITLE0=Please Help Me
TTITLE1=Why Did You Leave Me
TTITLE2=Praying to the Lord
TTITLE3=Boogie Rock
TTITLE4=Everything I Do is Wrong
TTITLE5=Sixteen Sons
TTITLE6=Jump with You Baby
TTITLE7=Lonely and Blue
TTITLE8=Talking the Blues
TTITLE9=You Know I Love You
TTITLE10=Please Love Me
TTITLE11=You Upset Me Baby
TTITLE12=Bad Luck
TTITLE13=Ten Long Years
TTITLE14=Sweet Little Angel
TTITLE15=Three O'Cock Blues
TTITLE16=Blind Love
TTITLE17=Crying Won't Help You
TTITLE18=Woke Up This Morning
TTITLE19=Everyday I Have the Blues
TTITLE20=On My Word of Honor
TTITLE21=I'm Cracking Up Over You
TTITLE22=Dark is the Night (Part 1)
TTITLE23=Let's Do the Boogie
TTITLE24=Did You Ever Love a Woman
TTITLE25=How Do I Love You
TTITLE26=You Can't Fool My Heart
TTITLE27=My Heart Belongs to You
TTITLE28=I Wonder
EXTD=
EXTT0=
EXTT1=
EXTT2=
EXTT3=
EXTT4=
EXTT5=
EXTT6=
EXTT7=
EXTT8=
EXTT9=
EXTT10=
EXTT11=
EXTT12=
EXTT13=
EXTT14=
EXTT15=
EXTT16=
EXTT17=
EXTT18=
EXTT19=
EXTT20=
EXTT21=
EXTT22=
EXTT23=
EXTT24=
EXTT25=
EXTT26=
EXTT27=
EXTT28=
PLAYORDER=
